<svg width="6.000000" height="11.000000" viewBox="0 0 6 11" fill="none" xmlns="http://www.w3.org/2000/svg" xmlns:xlink="http://www.w3.org/1999/xlink">
	<desc>
			Created with Pixso.
	</desc>
	<defs/>
	<path id="Vector" d="M5.39 4.66L-0.64 -0.06C-0.66 -0.07 -0.68 -0.08 -0.7 -0.08C-0.72 -0.08 -0.74 -0.08 -0.76 -0.07C-0.78 -0.06 -0.79 -0.05 -0.8 -0.03C-0.81 -0.01 -0.82 0.01 -0.82 0.03L-0.82 1.06C-0.82 1.13 -0.79 1.19 -0.74 1.23L4.09 5L-0.74 8.76C-0.79 8.8 -0.82 8.86 -0.82 8.93L-0.82 9.96C-0.82 10.05 -0.71 10.1 -0.64 10.05L5.39 5.33C5.44 5.29 5.49 5.24 5.51 5.18C5.54 5.12 5.56 5.06 5.56 5C5.56 4.93 5.54 4.87 5.51 4.81C5.49 4.75 5.44 4.7 5.39 4.66Z" fill="#000000" fill-opacity="0.850000" fill-rule="nonzero"/>
</svg>
